<svg width="146" height="26" viewBox="0 0 146 26" fill="none" xmlns="http://www.w3.org/2000/svg">
<g clip-path="url(#clip0_1_171)">
<rect width="145" height="25" transform="translate(0.417969 0.166992)" fill="white"/>
<path d="M8.47513 25.0456C7.03678 25.0695 5.61837 24.7069 4.36799 23.9956C3.16983 23.3064 2.18207 22.3039 1.51084 21.0956C0.785663 19.7853 0.418575 18.3071 0.446556 16.8099C0.418581 15.3099 0.793517 13.8299 1.53227 12.5241C2.21772 11.3127 3.21706 10.3084 4.42513 9.617C5.6772 8.90989 7.09445 8.54756 8.53227 8.567C9.93995 8.54596 11.3287 8.89314 12.5608 9.57415C13.7558 10.2706 14.7423 11.2745 15.418 12.4813C16.1385 13.7931 16.5029 15.2706 16.4751 16.767C16.5029 18.2634 16.1385 19.7409 15.418 21.0527C14.753 22.2768 13.7647 23.2947 12.5608 23.9956C11.3164 24.7022 9.90612 25.0646 8.47513 25.0456ZM8.47513 21.517C8.99362 21.5228 9.50741 21.4181 9.98227 21.2099C10.4564 21.0018 10.8839 20.7006 11.2394 20.3241C11.6615 19.8361 11.9824 19.2691 12.1834 18.656C12.3845 18.0429 12.4618 17.3959 12.4108 16.7527C12.463 16.1094 12.3863 15.4622 12.1852 14.8489C11.984 14.2356 11.6625 13.6687 11.2394 13.1813C10.891 12.8037 10.4678 12.5027 9.9969 12.2974C9.52595 12.0921 9.01746 11.9868 8.5037 11.9884C7.984 11.9823 7.4688 12.0853 6.99141 12.2908C6.51401 12.4962 6.08506 12.7996 5.73227 13.1813C5.31343 13.6709 4.99556 14.2385 4.79697 14.8514C4.59838 15.4644 4.52299 16.1105 4.57513 16.7527C4.5262 17.3892 4.60322 18.0291 4.80177 18.6358C5.00032 19.2424 5.31652 19.804 5.73227 20.2884C6.08119 20.666 6.50431 20.9676 6.97513 21.1741C7.44501 21.3939 7.95642 21.5108 8.47513 21.517Z" fill="#021059"/>
<path d="M27.8036 25.167C26.379 25.1907 24.977 24.8092 23.7608 24.067C22.5735 23.3309 21.6025 22.2933 20.9465 21.0599C20.2468 19.7204 19.8909 18.2281 19.9108 16.717C19.8857 15.2122 20.242 13.7256 20.9465 12.3956C21.6066 11.1822 22.578 10.1664 23.7608 9.45276C24.9804 8.71989 26.381 8.34374 27.8036 8.36704C28.9001 8.35112 29.9846 8.59593 30.9679 9.08133C31.8536 9.51642 32.6116 10.1735 33.1679 10.9885V1.4599H37.3036V24.7813H33.6179L33.1679 22.4813C32.6139 23.2283 31.9231 23.8634 31.1322 24.3528C30.124 24.9385 28.9684 25.2213 27.8036 25.167ZM28.6751 21.5385C29.2849 21.5599 29.8923 21.452 30.4574 21.2218C31.0225 20.9915 31.5324 20.6442 31.9536 20.2028C32.8309 19.2743 33.3059 18.0369 33.2751 16.7599C33.3225 15.486 32.8627 14.2453 31.9965 13.3099C31.1231 12.4531 29.9485 11.9731 28.7251 11.9731C27.5016 11.9731 26.327 12.4531 25.4536 13.3099C25.0195 13.7657 24.6814 14.304 24.4593 14.893C24.2372 15.482 24.1357 16.1095 24.1608 16.7385C24.1141 18.002 24.5655 19.2332 25.4179 20.167C25.8321 20.6141 26.3369 20.9676 26.8986 21.2041C27.4602 21.4406 28.0659 21.5546 28.6751 21.5385Z" fill="#021059"/>
<path d="M48.8751 25.167C47.4529 25.1897 46.0534 24.8083 44.8394 24.067C43.6488 23.3349 42.6768 22.2963 42.0251 21.0599C41.3188 19.7229 40.9625 18.2289 40.9894 16.717C40.9608 15.2119 41.3173 13.7243 42.0251 12.3956C42.6824 11.1825 43.6515 10.1666 44.8322 9.45275C46.0532 8.72306 47.4529 8.34716 48.8751 8.36704C49.9712 8.35462 51.0549 8.59925 52.0394 9.08133C52.9259 9.51841 53.684 10.178 54.2394 10.9956V1.46704H58.3751V24.7813H54.7037L54.2537 22.4813C53.6959 23.2301 53.0001 23.8654 52.2037 24.3528C51.1949 24.937 50.0397 25.2196 48.8751 25.167ZM49.7465 21.5385C50.3573 21.5591 50.9656 21.4508 51.5317 21.2207C52.0978 20.9906 52.6091 20.6437 53.0322 20.2028C53.8954 19.2689 54.3527 18.0306 54.3037 16.7599C54.3287 16.1289 54.2286 15.4992 54.0092 14.9071C53.7897 14.315 53.4553 13.7722 53.0251 13.3099C52.1517 12.4531 50.9771 11.9731 49.7537 11.9731C48.5302 11.9731 47.3556 12.4531 46.4822 13.3099C46.0481 13.7657 45.71 14.304 45.4879 14.893C45.2658 15.482 45.1643 16.1095 45.1894 16.7385C45.1523 18.0069 45.6169 19.2389 46.4822 20.167C46.8992 20.6111 47.4059 20.9612 47.9688 21.194C48.5317 21.4268 49.1377 21.5369 49.7465 21.517V21.5385Z" fill="#021059"/>
<path d="M66.8465 10.3813H62.7394V24.9313H66.8465V10.3813Z" fill="#07B2D9"/>
<path d="M145.418 0.252747H72.2894V4.3956H145.418V0.252747Z" fill="#07B2D9"/>
<path d="M78.9895 25.167C77.4958 25.1942 76.0201 24.8376 74.7037 24.1313C73.4701 23.4535 72.4507 22.444 71.7609 21.217C71.0329 19.8872 70.6659 18.3899 70.6966 16.8742C70.6693 15.331 71.0303 13.8056 71.7466 12.4384C72.4207 11.1934 73.4271 10.1598 74.6537 9.45273C75.988 8.70106 77.5014 8.3258 79.0323 8.36702C80.4878 8.3358 81.9253 8.69333 83.1966 9.40273C84.3938 10.074 85.3824 11.0627 86.0537 12.2599C86.7393 13.4802 87.0893 14.8603 87.068 16.2599C87.068 16.4956 87.068 16.7456 87.068 16.9742C87.068 17.2027 87.068 17.5027 87.018 17.7813H74.7966C74.8159 18.3322 74.9438 18.8739 75.173 19.3753C75.4023 19.8766 75.7283 20.3277 76.1323 20.7027C76.9132 21.4103 77.9359 21.7913 78.9895 21.767C79.7443 21.7991 80.4912 21.6024 81.1323 21.2027C81.6867 20.8403 82.1294 20.3308 82.4109 19.7313H86.6109C86.3087 20.7471 85.7978 21.6886 85.1109 22.4956C84.3889 23.339 83.4854 24.0081 82.468 24.4527C81.3759 24.9461 80.1876 25.1901 78.9895 25.167ZM78.9895 11.7027C78.0248 11.6883 77.0817 11.9892 76.3037 12.5599C75.5032 13.2092 74.986 14.1439 74.8609 15.167H82.8395C82.83 14.6888 82.7224 14.2176 82.5234 13.7826C82.3243 13.3477 82.038 12.9582 81.6823 12.6384C80.946 12.0081 80.0012 11.6745 79.0323 11.7027H78.9895Z" fill="#021059"/>
<path d="M90.5394 24.9313V8.87415H94.1894L94.5109 11.5956C94.999 10.655 95.7415 9.87046 96.6537 9.33129C97.6609 8.75323 98.807 8.46175 99.968 8.48843C100.829 8.44054 101.69 8.58418 102.49 8.90901C103.289 9.23384 104.006 9.73178 104.589 10.367C105.689 11.6194 106.239 13.4527 106.239 15.867V24.9313H102.097V16.2599C102.171 15.1399 101.878 14.0263 101.261 13.0884C100.944 12.7084 100.541 12.41 100.084 12.2186C99.6281 12.0271 99.1326 11.9482 98.6394 11.9884C98.1023 11.9716 97.568 12.073 97.0743 12.2852C96.5807 12.4975 96.1396 12.8156 95.7823 13.217C94.9912 14.1781 94.5931 15.403 94.668 16.6456V24.9313H90.5394Z" fill="#021059"/>
<path d="M118.039 25.167C116.525 25.1973 115.03 24.8277 113.704 24.0956C112.467 23.3912 111.445 22.3642 110.746 21.1242C110.024 19.7829 109.664 18.2759 109.704 16.7527C109.673 15.2262 110.045 13.7186 110.782 12.3813C111.48 11.1387 112.502 10.1091 113.739 9.40274C115.065 8.67122 116.561 8.304 118.075 8.33845C119.93 8.27496 121.752 8.83866 123.246 9.93845C124.661 11.0232 125.619 12.5977 125.932 14.3527H121.568C121.377 13.6087 120.922 12.9592 120.289 12.5242C119.495 12.0021 118.541 11.7794 117.598 11.8958C116.654 12.0123 115.783 12.4603 115.139 13.1599C114.293 14.151 113.861 15.4299 113.932 16.7313C113.859 18.0316 114.289 19.3102 115.132 20.3027C115.493 20.7146 115.939 21.0436 116.439 21.267C117.058 21.5296 117.731 21.6376 118.401 21.5816C119.07 21.5256 119.716 21.3073 120.282 20.9456C120.921 20.5104 121.377 19.8539 121.561 19.1027H125.932C125.592 20.8356 124.639 22.3878 123.246 23.4742C121.758 24.6226 119.918 25.2207 118.039 25.167Z" fill="#021059"/>
<path d="M137.368 25.167C135.874 25.1942 134.399 24.8376 133.082 24.1313C131.849 23.4552 130.832 22.4451 130.147 21.217C129.411 19.8897 129.042 18.3911 129.075 16.8742C129.048 15.331 129.409 13.8056 130.125 12.4384C130.797 11.1943 131.801 10.1608 133.025 9.45273C134.359 8.70106 135.873 8.3258 137.404 8.36702C138.859 8.3358 140.297 8.69333 141.568 9.40273C142.767 10.0713 143.756 11.0607 144.425 12.2599C145.11 13.4809 145.462 14.8601 145.447 16.2599C145.447 16.4956 145.447 16.7456 145.447 16.9742C145.447 17.2027 145.447 17.5027 145.397 17.7813H133.168C133.18 18.335 133.301 18.8809 133.526 19.3873C133.75 19.8937 134.073 20.3505 134.475 20.7313C135.256 21.4389 136.279 21.8198 137.332 21.7956C138.087 21.8276 138.834 21.631 139.475 21.2313C140.029 20.8689 140.472 20.3594 140.754 19.7599H144.954C144.651 20.7757 144.141 21.7172 143.454 22.5242C142.736 23.35 141.846 24.0083 140.847 24.4527C139.754 24.9452 138.566 25.1892 137.368 25.167ZM137.404 11.7027C136.439 11.6883 135.496 11.9892 134.718 12.5599C133.901 13.2017 133.368 14.1374 133.232 15.167H141.218C141.206 14.6885 141.096 14.2176 140.896 13.7828C140.696 13.3481 140.409 12.9587 140.054 12.6384C139.318 12.0068 138.373 11.6731 137.404 11.7027Z" fill="#021059"/>
<path d="M64.7823 5.41702C65.3027 5.41985 65.8123 5.26809 66.2465 4.98099C66.6806 4.69388 67.0198 4.28435 67.2209 3.8043C67.422 3.32424 67.4761 2.79528 67.3763 2.28445C67.2765 1.77362 67.0273 1.30392 66.6603 0.934876C66.2932 0.565833 65.8249 0.314063 65.3146 0.211476C64.8044 0.108889 64.2751 0.160102 63.794 0.358626C63.3128 0.557149 62.9015 0.894046 62.612 1.32662C62.3225 1.75919 62.168 2.26796 62.168 2.78845C62.167 3.1327 62.2339 3.47376 62.3648 3.79217C62.4957 4.11057 62.688 4.40009 62.9307 4.64417C63.1735 4.88826 63.4619 5.08214 63.7796 5.21474C64.0973 5.34735 64.438 5.41608 64.7823 5.41702Z" fill="#021059"/>
</g>
<defs>
<clipPath id="clip0_1_171">
<rect width="145" height="25" fill="white" transform="translate(0.417969 0.166992)"/>
</clipPath>
</defs>
</svg>
